<svg width="65" height="94" viewBox="0 0 65 94" fill="none" xmlns="http://www.w3.org/2000/svg">
<path d="M41.8508 2.35565C41.8508 2.35565 38.7494 11.8677 40.6206 15.5659C42.1763 18.6404 42.3486 19.5434 50.462 23.7078C50.462 23.7078 42.1437 15.7117 43.2567 9.06298C43.2567 9.06298 44.6919 17.0883 50.9892 23.2978C50.9892 23.2978 55.7048 18.1135 50.8427 11.8455C50.8427 11.8455 48.4117 9.09227 44.4869 6.69052C44.4869 6.69052 41.6165 4.93314 41.8508 2.35565Z" fill="#01B2C2"/>
<path d="M56.8242 69.3598C51.5781 75.2032 44.2375 78.7398 36.3982 79.2008C28.5588 79.6617 20.8544 77.0098 14.9596 71.8214C9.06475 66.6331 5.45609 59.3277 4.918 51.4932C4.37991 43.6588 6.95589 35.9286 12.086 29.9831C17.2161 24.0375 24.4856 20.3571 32.3144 19.7419C40.1431 19.1267 47.8983 21.6265 53.8941 26.6979C59.8899 31.7692 63.6416 39.0022 64.3338 46.8245C65.026 54.6468 62.6027 62.4262 57.5906 68.4716" fill="#01B2C2" fill-opacity="0.847059"/>
<path d="M59.193 65.4353C59.193 65.4353 61.4191 74.6322 51.4606 81.0759C51.4606 81.0759 67.5699 77.444 63.1764 58.1714" fill="#01B2C2" fill-opacity="0.847059"/>
<path d="M52.136 68.7762C46.9446 74.5586 39.6806 78.0582 31.923 78.5144C24.1655 78.9705 16.5414 76.3463 10.7081 71.2122C4.87477 66.0781 1.30375 58.849 0.771272 51.0965C0.238796 43.344 2.7879 35.6946 7.86449 29.8112C12.9411 23.9278 20.1348 20.2859 27.8819 19.6771C35.6289 19.0684 43.3032 21.542 49.2364 26.5603C55.1697 31.5787 58.8823 38.736 59.5673 46.4765C60.2522 54.2171 57.8542 61.9151 52.8944 67.8973" fill="#ED9722" fill-opacity="0.767857"/>
<path d="M52.8266 67.8147C47.7691 73.4479 40.6925 76.8572 33.1351 77.3015C25.5777 77.7459 18.1504 75.1894 12.4676 70.1878C6.78479 65.1861 3.30592 58.1436 2.78718 50.5911C2.26845 43.0386 4.75178 35.5866 9.69737 29.855C14.643 24.1234 21.651 20.5755 29.1982 19.9825C36.7454 19.3894 44.2217 21.7992 50.0018 26.6881C55.7819 31.5769 59.3988 38.5496 60.0661 46.0904C60.7333 53.6312 58.3972 61.1306 53.5653 66.9585" fill="white"/>
<path d="M58.0754 59.1575C58.0754 59.1575 56.0576 47.7453 39.986 46.2541C39.986 46.2541 50.8799 41.1178 60.0341 52.9231C60.0341 52.9231 59.9275 56.4448 58.0754 59.1575Z" fill="#01B2C2"/>
<path d="M54.2246 42.5042C53.2867 43.5489 51.9744 44.1812 50.5729 44.2636C49.1714 44.346 47.794 43.8719 46.7401 42.9443C45.6863 42.0167 45.0411 40.7107 44.9449 39.3101C44.8487 37.9095 45.3092 36.5275 46.2264 35.4645C47.1435 34.4016 48.4432 33.7436 49.8428 33.6336C51.2424 33.5237 52.6288 33.9706 53.7008 34.8772C54.7727 35.7838 55.4434 37.0769 55.5672 38.4754C55.6909 39.8739 55.2577 41.2646 54.3616 42.3454" fill="#01B2C2"/>
<path d="M25.7391 30.367C25.7391 30.367 31.9278 22.5057 36.0424 22.0084C39.4632 21.5949 40.3098 21.2368 48.2785 25.6718C48.2785 25.6718 37.0094 23.1941 32.098 27.8117C32.098 27.8117 39.5693 24.5489 48.2302 26.338C48.2302 26.338 46.5372 33.1386 38.6246 32.5755C38.6246 32.5755 34.9849 32.0826 30.808 30.1522C30.808 30.1522 27.7526 28.7409 25.7391 30.367Z" fill="#01B2C2"/>
<path d="M10.5361 59.5096C14.109 45.7917 15.1762 41.7641 15.2385 41.7636C15.3535 41.7628 15.9741 42.0506 15.9731 42.1042C15.971 42.2159 15.8727 42.2927 15.7075 42.3118L15.5313 42.3322L13.6593 50.088C12.6297 54.3537 11.7946 57.8511 11.8036 57.8601C11.8126 57.8691 12.0604 57.8244 12.3544 57.7609C13.0218 57.6166 14.6354 57.3696 15.5846 57.2665C15.9955 57.2219 16.9708 57.1894 17.861 57.1908C19.5557 57.1933 20.1592 57.2589 21.1557 57.5483C21.6827 57.7014 22.4072 57.9935 22.365 58.0357C22.3533 58.0474 22.0764 58.0167 21.7497 57.9674C21.0508 57.8621 19.2195 57.8473 18.3016 57.9396C16.3465 58.1361 13.6785 58.6915 11.4237 59.3713C10.9802 59.505 10.5929 59.6144 10.5631 59.6144C10.5332 59.6144 10.5211 59.5672 10.5361 59.5096Z" fill="#F1AF55"/>
<path d="M13.0677 56.4922C13.0871 56.4138 13.9733 52.7444 15.0372 48.338C16.101 43.9316 16.9848 40.313 17.0012 40.2967C17.0175 40.2803 17.5072 40.489 18.0894 40.7604C18.6716 41.0318 19.1145 41.2606 19.0736 41.2689C19.0327 41.2771 18.6083 41.1919 18.1306 41.0796C17.6528 40.9673 17.2578 40.8797 17.2526 40.885C17.2449 40.8928 14.5174 53.5695 14.2726 54.7357L14.1964 55.0986L14.8653 55.0731C16.1723 55.023 17.9586 55.2172 19.2088 55.5452C19.8974 55.7258 21.0547 56.2393 21.3654 56.502L21.5151 56.6287L21.3354 56.5879C18.6307 55.9742 15.3053 55.9771 13.1704 56.5949C13.0486 56.6302 13.0366 56.6183 13.0677 56.4922Z" fill="#00B2C2" fill-opacity="0.847059"/>
<path d="M7.78252 63.0139C7.79797 62.9727 8.93766 58.9225 10.3152 54.0134C11.6927 49.1043 12.8367 45.0675 12.8574 45.0427C12.8782 45.0179 13.0638 45.0546 13.2698 45.1242C13.5876 45.2315 13.6416 45.2701 13.6261 45.3789C13.6114 45.4821 13.5606 45.5105 13.3654 45.5249L13.123 45.5427L11.1534 53.2968C10.0701 57.5616 9.19772 61.0648 9.21468 61.0818C9.23163 61.0987 9.89008 60.899 10.6779 60.638C15.835 58.9291 19.7666 58.396 22.3838 59.0509C23.004 59.206 23.8484 59.59 24.034 59.8012C24.1356 59.9168 24.1373 59.9293 24.0475 59.8965C23.4803 59.6898 21.1129 59.6974 19.6581 59.9106C16.9004 60.3146 13.595 61.1614 9.69498 62.4628C8.66311 62.8071 7.80435 63.0888 7.78663 63.0888C7.76891 63.0888 7.76706 63.0551 7.78252 63.0139Z" fill="#27BECB"/>
<path d="M42.7736 63.0599C41.8958 62.6906 38.0853 61.5031 36.0718 60.9712C31.8409 59.8538 28.4864 59.4659 26.7635 59.8948C26.6216 59.9302 26.6148 59.9243 26.691 59.8318C26.9515 59.5157 27.9997 59.1027 29.0065 58.9196C29.8227 58.7711 31.8593 58.771 32.9568 58.9196C35.2514 59.2299 37.2986 59.729 40.1347 60.6697C40.8867 60.9191 41.5172 61.108 41.5358 61.0894C41.5543 61.0708 40.683 57.5653 39.5994 53.2993L37.6293 45.5431L37.3896 45.5251C37.2016 45.5111 37.1463 45.481 37.1326 45.3852C37.1182 45.285 37.1811 45.2396 37.4861 45.1298C37.6902 45.0564 37.8697 45.0088 37.8849 45.024C37.9195 45.0586 42.9942 63.1054 42.9748 63.1247C42.967 63.1324 42.8765 63.1033 42.7736 63.06V63.0599Z" fill="#27BECB"/>
<path d="M39.4563 59.42C37.9324 58.946 35.9263 58.4725 34.2147 58.1825C32.4189 57.8784 30.2581 57.788 29.068 57.9674C28.7413 58.0167 28.4632 58.0461 28.4499 58.0329C28.4086 57.9916 29.3777 57.6387 29.9529 57.4856C31.6604 57.0311 33.9592 56.9811 36.4012 57.3455C37.1101 57.4512 38.5751 57.7412 38.9621 57.8524C39.0362 57.8737 39.0962 57.8678 39.0953 57.8392C39.0945 57.8107 38.2353 54.3099 37.1861 50.0597L35.2785 42.3321L35.0274 42.3135C34.8099 42.2974 34.7789 42.2779 34.7951 42.1672C34.8087 42.0739 34.909 42.0012 35.1668 41.8978C35.3609 41.8199 35.5396 41.778 35.5639 41.8046C35.6145 41.8599 40.2555 59.6169 40.2251 59.6386C40.2141 59.6465 39.8681 59.5481 39.4563 59.42Z" fill="#F1AF55"/>
<path d="M29.5422 56.5343C29.7838 56.3267 30.4042 56.0077 30.9351 55.8183C32.1422 55.3876 33.4169 55.1883 35.278 55.1395C36.208 55.1152 36.6409 55.0829 36.6412 55.0378C36.6416 54.9584 33.6409 40.9615 33.6183 40.9378C33.6096 40.9287 33.2028 41.0169 32.7143 41.1338C32.2258 41.2507 31.8016 41.3381 31.7716 41.3281C31.7416 41.3181 32.1944 41.0869 32.7779 40.8144C33.3613 40.5418 33.8534 40.3335 33.8714 40.3515C33.9055 40.3856 37.8413 56.6368 37.8204 56.6577C37.8139 56.6642 37.539 56.6041 37.2097 56.5241C35.2892 56.0572 32.5498 56.05 30.1847 56.5056C29.8462 56.5708 29.5227 56.6387 29.4659 56.6564C29.4087 56.6743 29.4428 56.6197 29.5422 56.5343Z" fill="#00B2C2" fill-opacity="0.847059"/>
<path d="M21.5245 55.3762C19.1524 53.8089 16.0602 54.2325 16.0602 54.2325L18.4323 41.9062L20.6349 42.6687L18.6865 42.4145L16.4838 53.7242C16.4838 53.7242 19.1948 53.2583 21.5245 55.3762Z" fill="#ED9722" fill-opacity="0.768627"/>
<path d="M29.6501 55.5151C32.0222 53.9478 35.1143 54.3714 35.1143 54.3714L32.7422 42.0451L30.5396 42.8076L32.4881 42.5534L34.6907 53.8631C34.6907 53.8631 31.9798 53.3971 29.6501 55.5151Z" fill="#F1AF55"/>
</svg>
